<?xml version="1.0" encoding="UTF-8" standalone="no"?>
<!-- Created with Inkscape (http://www.inkscape.org/) -->

<svg
   xmlns:dc="http://purl.org/dc/elements/1.1/"
   xmlns:cc="http://creativecommons.org/ns#"
   xmlns:rdf="http://www.w3.org/1999/02/22-rdf-syntax-ns#"
   xmlns:svg="http://www.w3.org/2000/svg"
   xmlns="http://www.w3.org/2000/svg"
   xmlns:sodipodi="http://sodipodi.sourceforge.net/DTD/sodipodi-0.dtd"
   xmlns:inkscape="http://www.inkscape.org/namespaces/inkscape"
   width="144"
   height="20.658285"
   id="svg3070"
   version="1.1"
   inkscape:version="0.48.5 r10040"
   sodipodi:docname="logo.svg">
  <defs
     id="defs3072" />
  <sodipodi:namedview
     id="base"
     pagecolor="#ffffff"
     bordercolor="#666666"
     borderopacity="1.0"
     inkscape:pageopacity="0.0"
     inkscape:pageshadow="2"
     inkscape:zoom="1.0681152"
     inkscape:cx="33.797638"
     inkscape:cy="-127.64504"
     inkscape:document-units="px"
     inkscape:current-layer="layer1"
     showgrid="false"
     fit-margin-top="0"
     fit-margin-left="0"
     fit-margin-right="0"
     fit-margin-bottom="0"
     inkscape:window-width="1920"
     inkscape:window-height="1137"
     inkscape:window-x="3512"
     inkscape:window-y="-8"
     inkscape:window-maximized="1" />
  <metadata
     id="metadata3075">
    <rdf:RDF>
      <cc:Work
         rdf:about="">
        <dc:format>image/svg+xml</dc:format>
        <dc:type
           rdf:resource="http://purl.org/dc/dcmitype/StillImage" />
        <dc:title></dc:title>
      </cc:Work>
    </rdf:RDF>
  </metadata>
  <g
     inkscape:label="Layer 1"
     inkscape:groupmode="layer"
     id="layer1"
     transform="translate(-240.87529,-587.67323)">
    <g
       id="g3190"
       transform="matrix(0.28676788,0,0,-0.28676788,239.91935,650.35306)"
       inkscape:export-filename="C:\Users\Mark\Documents\NuWave\logo-128.png"
       inkscape:export-xdpi="90"
       inkscape:export-ydpi="90">
      <path
         id="path3162"
         style="fill:#3d7ea7;fill-opacity:1;fill-rule:nonzero;stroke:none"
         d="m 3.3335,148.6354 0,69.926 42.264,0 22.893,-46.026 0,46.038 25.661,0 0,-69.938 -41.635,0 -24.036,48.785 0,-48.785 -25.147,0 z"
         inkscape:connector-curvature="0" />
      <path
         inkscape:connector-curvature="0"
         id="path3166"
         style="fill:#3d7ea7;fill-opacity:1;fill-rule:nonzero;stroke:none"
         d="m 98.3071,197.441 28.176,0 0,-27.18 c 0,0 -0.498,-8.544 8.176,-8.544 0,0 8.176,0.125 8.302,8.675 l 0,27.049 27.421,0 0,-48.68 -26.415,0 0,7.924 c 0,0 -5.786,-9.182 -20.755,-9.936 0,0 -22.515,-3.02 -24.905,18.365 l 0,32.327 z" />
      <path
         inkscape:connector-curvature="0"
         id="path3170"
         style="fill:#dfb652;fill-opacity:1;fill-rule:nonzero;stroke:none"
         d="m 167.167,218.2276 28.167,0 9.5,-43.167 12.166,43.5 32.5,0 12.5,-43.166 8.834,42.833 26,0 -16.167,-69.167 c 0,0 -15.833,-2 -24.167,3.167 0,0 -12.5,6.333 -10.833,22 0,0 1.333,11.167 11,9.833 0,0 -2.851,10.513 -20.333,7.5 0,0 -9.834,-2 -15.667,-12.5 0,0 -18.833,-35.001 -37.5,-30.167 l -16,69.334 z" />
      <path
         inkscape:connector-curvature="0"
         id="path3174"
         style="fill:#dfb652;fill-opacity:1;fill-rule:nonzero;stroke:none"
         d="m 333.1665,169.3946 c 0,0 -14.166,1.166 -17.833,-5 0,0 -2.334,-6.835 6.333,-7.501 0,0 12.042,-0.583 11.5,12.501 m -32.833,25 c 9.333,6.333 36.833,4 36.833,4 21.667,-2 23.334,-17.167 23.334,-17.167 l 0,-32.334 -25.334,0 0,5.834 c -7.167,-8.833 -23.5,-7.834 -23.5,-7.834 -21.5,-1.834 -22.833,10.167 -22.833,10.167 -2.833,10.001 5.333,15.667 5.333,15.667 8.5,7.5 38.667,5.834 38.667,5.834 l 0,6 c -2.167,4.333 -8.333,4 -8.333,4 -8,-0.167 -7.834,-5.834 -7.834,-5.834 l -25.333,0 c -0.667,8.167 9,11.667 9,11.667" />
      <path
         inkscape:connector-curvature="0"
         id="path3178"
         style="fill:#dfb652;fill-opacity:1;fill-rule:nonzero;stroke:none"
         d="m 356.9585,197.4361 22.5,-48.751 36.5,0 21.5,48.876 -26.875,0 -11.75,-31.25 -12.125,31.125 -29.75,0 z" />
      <path
         inkscape:connector-curvature="0"
         id="path3182"
         style="fill:#dfb652;fill-opacity:1;fill-rule:nonzero;stroke:none"
         d="m 469.0835,188.4361 c -9.5,-0.25 -9.25,-9.625 -9.25,-9.625 l 17.875,0 c 0.5,9.625 -8.625,9.625 -8.625,9.625 m -9.375,-19.5 c 0.125,-13.251 9.875,-11.626 9.875,-11.626 6.875,-0.25 8,5.5 8,5.5 l 27.5,0 c -5.25,-17.625 -34.75,-16.25 -34.75,-16.25 -39.75,-0.875 -37.5,25.251 -37.5,25.251 -1,29 36.875,27 36.875,27 41.25,-0.875 35.5,-30.25 35.5,-30.25 l -45.5,0.375 z" />
    </g>
  </g>
</svg>
